<svg xmlns="http://www.w3.org/2000/svg" xmlns:xlink="http://www.w3.org/1999/xlink" width="205" height="46"><defs><filter id="a" width="2" height="2" x="-.5" y="-.5" filterUnits="objectBoundingBox"><feOffset dy="1" in="SourceAlpha" result="shadowOffsetOuter1"/><feGaussianBlur in="shadowOffsetOuter1" result="shadowBlurOuter1" stdDeviation=".5"/><feColorMatrix in="shadowBlurOuter1" result="shadowMatrixOuter1" values="0 0 0 0 0 0 0 0 0 0 0 0 0 0 0 0 0 0 0.168 0"/><feOffset in="SourceAlpha" result="shadowOffsetOuter2"/><feGaussianBlur in="shadowOffsetOuter2" result="shadowBlurOuter2" stdDeviation=".5"/><feColorMatrix in="shadowBlurOuter2" result="shadowMatrixOuter2" values="0 0 0 0 0 0 0 0 0 0 0 0 0 0 0 0 0 0 0.084 0"/><feMerge><feMergeNode in="shadowMatrixOuter1"/><feMergeNode in="shadowMatrixOuter2"/><feMergeNode in="SourceGraphic"/></feMerge></filter><rect id="b" width="40" height="40" rx="2"/></defs><g fill="none" fill-rule="evenodd" filter="url(#a)" transform="translate(3 3)"><use width="100%" height="100%" fill="#1da1f2" fill-opacity=".94901961" xlink:href="#b"/><use width="100%" height="100%" xlink:href="#b"/><use width="100%" height="100%" xlink:href="#b"/><use width="100%" height="100%" xlink:href="#b"/><use width="100%" height="100%" fill="#1da1f2" fill-opacity=".94901961" transform="translate(159)" xlink:href="#b"/><use width="100%" height="100%" fill="#1da1f2" fill-opacity=".94901961" transform="matrix(3.35675 0 0 1 32.200897 0)" xlink:href="#b"/></g><text x="53.761345" y="28.102215" font-family="Roboto" font-size="18.66666603" font-weight="500" letter-spacing="0" style="line-height:14px;-inkscape-font-specification:'Roboto Medium'" word-spacing="0"><tspan x="53.761345" y="28.102215" fill="#fff" fill-opacity=".94117647" font-size="16" style="line-height:23.33333206px;-inkscape-font-specification:'Roboto Medium'">Sign in with Twitter</tspan></text><path fill="#fff" d="M20.88888918 32.02117888c8.27544266 0 12.80368065-6.86256221 12.80368065-12.80368065 0-.1930644 0-.38612881-.00877566-.57919322.8775655-.63184717 1.64104749-1.43043177 2.24656768-2.33432424-.80736026.35980186-1.6761501.59674455-2.58881823.71082806.93021943-.55286627 1.64104749-1.43920742 1.98329803-2.49228602-.86878984.51776365-1.83411189.88634115-2.86086353 1.08818122-.82491157-.8775655-1.99207368-1.42165611-3.28209497-1.42165611-2.48351036 0-4.50191101 2.01840065-4.50191101 4.50191102 0 .3510262.04387827.69327674.11408351 1.02675163-3.73842903-.18428876-7.05562662-1.98329803-9.27586733-4.70375108-.38612882.66694978-.6055202 1.43920742-.6055202 2.26411899 0 1.56206659.79858461 2.93984442 2.00084934 3.74720469-.73715502-.02632697-1.43043176-.22816704-2.03595196-.56164193v.06142959c0 2.17636244 1.55329094 4.00169868 3.60679421 4.41415447-.37735316.10530785-.77225764.15796178-1.18471342.15796178-.28959662 0-.57041758-.02632696-.84246288-.07898089.57041757 1.79023362 2.23779202 3.08903056 4.20353874 3.12413318-1.54451528 1.21104039-3.48393504 1.9306441-5.59009224 1.9306441-.35980185 0-.7196037-.01755131-1.0706299-.06142958 1.98329802 1.26369432 4.35272487 2.00962499 6.88888917 2.00962499" class="st1"/></svg>